<svg xmlns="http://www.w3.org/2000/svg" width="200" height="200" viewBox="0 0 200 200" fill="none">
  <circle cx="100" cy="100" r="80" fill="#D9F2EF" />
  <circle cx="100" cy="100" r="60" fill="#67B7B6" />
  <circle cx="100" cy="100" r="40" fill="#318C8B" />
  <path d="M85 80C85 74.4772 89.4772 70 95 70H105C110.523 70 115 74.4772 115 80V90C115 95.5228 110.523 100 105 100H95C89.4772 100 85 95.5228 85 90V80Z" fill="white" />
  <rect x="85" y="110" width="30" height="20" rx="5" fill="white" />
  <path d="M70 150C80 130 120 130 130 150" stroke="white" stroke-width="8" stroke-linecap="round" />
  <circle cx="70" cy="70" r="10" fill="white" />
  <circle cx="130" cy="70" r="10" fill="white" />
  <line x1="50" y1="50" x2="65" y2="65" stroke="#F44336" stroke-width="5" stroke-linecap="round" />
  <line x1="65" y1="50" x2="50" y2="65" stroke="#F44336" stroke-width="5" stroke-linecap="round" />
  <line x1="135" y1="50" x2="150" y2="65" stroke="#F44336" stroke-width="5" stroke-linecap="round" />
  <line x1="150" y1="50" x2="135" y2="65" stroke="#F44336" stroke-width="5" stroke-linecap="round" />
</svg>
